<svg width="349" height="38" viewBox="0 0 349 38" fill="none" xmlns="http://www.w3.org/2000/svg">
<g clip-path="url(#clip0_6708_10897)">
<path d="M33.33 19.8644C33.1638 22.6569 32.1977 25.3417 30.5481 27.5958C28.8985 29.8498 26.6356 31.577 24.0317 32.5696C21.4277 33.5622 18.5937 33.7779 15.8706 33.1907C13.1475 32.6036 10.6513 31.2385 8.68244 29.2599C7.34103 27.9113 6.27722 26.3105 5.55173 24.549C4.82624 22.7874 4.45329 20.8995 4.45417 18.9932C4.45594 15.1432 5.9803 11.4515 8.6919 8.73043C11.4035 6.0093 15.0802 4.4816 18.9132 4.48338C22.7462 4.48516 26.4215 6.01629 29.1306 8.73993C29.6047 9.21691 30.047 9.72467 30.4547 10.2599L33.2165 6.86843C32.8854 6.46943 32.5355 6.07993 32.1572 5.69993C30.4404 3.85653 28.372 2.37886 26.075 1.35488C23.778 0.330891 21.2994 -0.218489 18.7867 -0.260568C16.274 -0.302647 13.7785 0.163434 11.4488 1.10994C9.11911 2.05644 7.00279 3.46403 5.22578 5.24892C3.44878 7.03381 2.04742 9.15954 1.1051 11.4996C0.162784 13.8396 -0.301237 16.3462 -0.259344 18.87C-0.217451 21.3939 0.3295 23.8835 1.34896 26.1907C2.36842 28.4979 3.83955 30.5755 5.6748 32.2999C8.52382 35.1603 12.2151 37.0216 16.2008 37.6077C20.1865 38.1938 24.2541 37.4734 27.7999 35.5535C31.3457 33.6335 34.1806 30.6163 35.8839 26.9498C37.5871 23.2832 38.068 19.1627 37.255 15.1999L33.33 19.8644Z" fill="#3B3B3C"/>
<path d="M199.289 10.1081C195.1 10.1081 191.978 13.4521 191.978 18.9716C191.978 25.0896 195.326 27.7971 199.81 27.7971C202.118 27.8266 204.372 27.0996 206.232 25.7261L205.768 22.4201C204.211 23.7189 202.268 24.4608 200.245 24.5291C197.786 24.5291 196.13 23.0851 195.932 19.7791H206.232V18.7626C206.26 13.9461 204.104 10.1081 199.289 10.1081ZM195.989 17.1001C196.301 14.3261 197.587 12.9961 199.185 12.9961C201.077 12.9961 202.108 14.4686 202.373 17.1001H195.989ZM218.376 10.1081C216.229 10.1081 214.526 11.3431 213.032 12.8536L212.672 10.4501H209.277V27.4456H213.259V15.9791C214.422 14.6776 215.661 13.8321 216.919 13.8321C218.376 13.8321 218.981 14.8581 218.981 16.3306V27.4456H222.963V15.2001C222.963 12.0461 221.374 10.1081 218.376 10.1081ZM232.44 16.9386C230.047 16.2641 229.451 15.7796 229.451 14.8581C229.451 13.9366 230.179 13.3001 231.721 13.3001C233.521 13.3721 235.272 13.9052 236.809 14.8486L237.339 11.3336C235.576 10.5271 233.657 10.1247 231.721 10.1556C228.004 10.1556 225.81 12.2171 225.81 15.1431C225.81 18.2306 227.427 19.4276 231.324 20.4821C233.877 21.1566 234.577 21.6411 234.577 22.8381C234.577 24.0351 233.631 24.6051 231.919 24.6051C229.807 24.5287 227.764 23.8281 226.046 22.5911L225.516 26.1156C227.423 27.1568 229.551 27.7206 231.721 27.7591C235.939 27.7591 238.2 25.7926 238.2 22.4486C238.219 19.2566 236.592 18.0501 232.44 16.9386ZM184.431 16.9386C182.047 16.2641 181.452 15.7796 181.452 14.8581C181.452 13.9366 182.18 13.3096 183.674 13.3096C185.471 13.3815 187.22 13.9147 188.753 14.8581L189.292 11.3431C187.531 10.5321 185.612 10.1264 183.674 10.1556C179.948 10.1556 177.763 12.2171 177.763 15.1431C177.763 18.2306 179.39 19.4276 183.277 20.4821C185.84 21.1566 186.54 21.6411 186.54 22.8381C186.54 24.0351 185.594 24.6051 183.873 24.6051C181.77 24.5232 179.738 23.8229 178.028 22.5911L177.498 26.1156C179.415 27.1652 181.558 27.7294 183.74 27.7591C187.959 27.7591 190.219 25.7926 190.219 22.4486C190.248 19.2566 188.621 18.0501 184.431 16.9386ZM162.99 10.1081C160.833 10.1081 159.14 11.3431 157.636 12.8536L157.277 10.4501H153.891V27.4551H157.882V15.9791C159.046 14.6871 160.266 13.8416 161.533 13.8416C162.99 13.8416 163.595 14.8581 163.595 16.3401V27.4551H167.577V15.2001C167.577 12.0461 165.978 10.1081 162.99 10.1081ZM128.752 10.1081C127.72 10.1741 126.713 10.4518 125.792 10.924C124.871 11.3962 124.057 12.0529 123.398 12.8536C123.123 11.994 122.565 11.254 121.816 10.7551C121.066 10.2562 120.17 10.0281 119.275 10.1081C117.128 10.1081 115.492 11.3431 113.997 12.8536L113.628 10.4501H110.242V27.4551H114.224V15.9506C115.397 14.6871 116.551 13.8416 117.79 13.8416C119.246 13.8416 119.776 14.8581 119.776 16.3401V27.4551H123.758V15.9506C124.931 14.6871 126.094 13.8416 127.324 13.8416C128.78 13.8416 129.281 14.8581 129.281 16.3401V27.4551H133.263V15.2001C133.263 12.0461 131.769 10.1081 128.752 10.1081ZM101.929 10.1081C100.898 10.1715 99.8911 10.4481 98.9716 10.9205C98.052 11.3929 97.2395 12.0511 96.585 12.8536C96.3096 11.994 95.7515 11.254 95.0021 10.7551C94.2528 10.2562 93.3568 10.0281 92.4614 10.1081C90.2955 10.1081 88.6782 11.3431 87.1838 12.8536L86.8149 10.4501H83.4195V27.4551H87.4108V15.9506C88.5741 14.6871 89.7374 13.8416 90.967 13.8416C92.433 13.8416 92.9626 14.8581 92.9626 16.3401V27.4551H96.9444V15.9506C98.1172 14.6871 99.2711 13.8416 100.51 13.8416C101.967 13.8416 102.468 14.8581 102.468 16.3401V27.4551H106.45V15.2001C106.45 12.0461 104.984 10.1081 101.929 10.1081ZM73.186 10.1081C68.8353 10.1081 65.6196 13.4521 65.6196 18.9811C65.6196 24.5101 68.7785 27.8066 73.1292 27.8066C77.4799 27.8066 80.7713 24.4911 80.7713 19.0001C80.7713 13.5091 77.5555 10.1081 73.186 10.1081ZM73.186 24.3581C70.8593 24.3581 69.5636 22.0781 69.5636 18.9906C69.5636 15.9031 70.8309 13.6041 73.186 13.6041C75.541 13.6041 76.9124 15.8556 76.9124 18.9906C76.9124 22.1256 75.664 24.3486 73.1576 24.3486L73.186 24.3581ZM59.4057 24.1491C56.975 24.1491 55.1874 22.4581 55.1874 18.9431C55.1874 15.4281 56.8425 13.7751 59.1408 13.7751C60.6946 13.7736 62.1964 14.3372 63.3686 15.3616L63.9266 11.5616C62.437 10.58 60.6855 10.0764 58.9044 10.1176C54.6577 10.1176 51.1677 13.1481 51.1677 19.0571C51.1677 24.6146 54.3267 27.7781 58.7341 27.7781C60.6409 27.8452 62.5142 27.2627 64.0495 26.1251L63.5199 22.5341C62.395 23.5658 60.9289 24.1413 59.4057 24.1491ZM247.26 10.1081C243.07 10.1081 239.94 13.4521 239.94 18.9716C239.94 25.0896 243.307 27.7971 247.79 27.7971C250.092 27.8267 252.341 27.0994 254.193 25.7261L253.739 22.4201C252.184 23.7157 250.245 24.4573 248.225 24.5291C245.766 24.5291 244.101 23.0851 243.903 19.7791H254.193V18.7626C254.231 13.9461 252.074 10.1081 247.26 10.1081ZM244.016 17.1001C244.319 14.3261 245.615 12.9961 247.204 12.9961C249.095 12.9961 250.136 14.4686 250.4 17.1001H244.016ZM143.762 10.1081C139.411 10.1081 136.195 13.4521 136.195 18.9811C136.195 24.5101 139.354 27.8066 143.705 27.8066C148.055 27.8066 151.328 24.4911 151.328 19.0001C151.328 13.5091 148.15 10.1081 143.762 10.1081ZM143.762 24.3581C141.444 24.3581 140.149 22.0781 140.149 18.9906C140.149 15.9031 141.406 13.6041 143.762 13.6041C146.117 13.6041 147.478 15.8556 147.478 18.9906C147.478 22.1256 146.192 24.3486 143.762 24.3486V24.3581ZM39.175 3.1541L24.5908 20.9001C23.2761 22.3441 21.9993 23.0851 20.8076 23.0851C19.8211 23.044 18.8846 22.638 18.1783 21.9451L13.0426 16.5491C12.8608 16.3564 12.6426 16.2021 12.4007 16.0951C12.1588 15.9882 11.8981 15.9309 11.6338 15.9264C11.3696 15.922 11.1071 15.9706 10.8618 16.0694C10.6165 16.1681 10.3932 16.3151 10.2052 16.5016C9.82422 16.873 9.6038 17.3799 9.59142 17.913C9.57903 18.4461 9.77568 18.9628 10.139 19.3516L15.1328 24.8046C15.8302 25.5882 16.6782 26.2219 17.6258 26.6676C18.5734 27.1133 19.6011 27.3618 20.6468 27.3981C23.0491 27.3981 25.3758 26.0681 27.4471 23.7311L42.2299 5.7001C42.4168 5.50161 42.5611 5.26668 42.6538 5.00988C42.7466 4.75308 42.7858 4.47989 42.7692 4.20722C42.7525 3.93456 42.6803 3.66824 42.5569 3.42477C42.4336 3.1813 42.2618 2.96586 42.0522 2.79181C41.8426 2.61776 41.5996 2.48881 41.3383 2.41295C41.077 2.33708 40.803 2.31592 40.5333 2.35078C40.2636 2.38564 40.0038 2.47577 39.7702 2.61558C39.5365 2.7554 39.3339 2.94193 39.175 3.1636V3.1541ZM316.001 12.9106C314.722 12.3634 313.343 12.0885 311.953 12.1031C308.293 12.1031 305.02 14.8106 305.02 20.3206C305.02 25.4126 307.858 27.7971 311.215 27.7971C312.159 27.7708 313.085 27.5277 313.921 27.0864C314.757 26.645 315.482 26.0172 316.039 25.2511L316.417 27.4741H317.514V4.7501H316.001V12.9106ZM316.001 23.6456C314.526 25.3176 313.079 26.4101 311.272 26.4101C308.577 26.4101 306.619 24.2251 306.619 20.2636C306.619 15.5896 309.021 13.4331 312.01 13.4331C313.403 13.422 314.778 13.7478 316.02 14.3831L316.001 23.6456ZM347.288 14.1266C347.288 13.5756 346.881 13.2526 346.248 13.2526H345.434V16.2641H345.869V15.0101H346.163L347.108 16.3021L347.562 16.1881L346.673 14.9531C346.855 14.9074 347.015 14.8002 347.127 14.6497C347.239 14.4991 347.296 14.3144 347.288 14.1266ZM345.86 14.6586V13.6421H346.238C346.635 13.6421 346.853 13.8226 346.853 14.1456C346.853 14.4686 346.617 14.6586 346.229 14.6586H345.86ZM335.617 12.0461C333.733 12.0815 331.88 12.5323 330.188 13.3666L330.387 14.7821C331.977 13.9173 333.752 13.4513 335.56 13.4236C337.641 13.4236 338.889 14.4591 338.889 16.5871V17.9076C331.635 18.5821 329.072 20.3871 329.072 23.7691C329.072 26.5146 331.096 27.8066 333.631 27.8066C335.629 27.6878 337.519 26.8517 338.956 25.4506L339.306 27.4741H340.374V16.5206C340.374 13.6231 338.7 12.0461 335.617 12.0461ZM338.889 24.0636C337.484 25.4398 335.651 26.2913 333.697 26.4766C331.995 26.4766 330.614 25.5741 330.614 23.6266C330.614 21.1376 332.666 19.8266 338.889 19.1426V24.0636Z" fill="#231F20"/>
<path d="M346.304 12.1411C345.949 12.1288 345.596 12.1907 345.266 12.323C344.936 12.4554 344.637 12.6552 344.388 12.9098C344.138 13.1644 343.945 13.4682 343.819 13.802C343.693 14.1358 343.638 14.4922 343.656 14.8486C343.635 15.2106 343.687 15.5733 343.81 15.9143C343.933 16.2552 344.124 16.5673 344.372 16.8313C344.62 17.0954 344.918 17.3057 345.25 17.4495C345.581 17.5933 345.939 17.6675 346.3 17.6675C346.661 17.6675 347.018 17.5933 347.35 17.4495C347.681 17.3057 347.98 17.0954 348.227 16.8313C348.475 16.5673 348.666 16.2552 348.789 15.9143C348.912 15.5733 348.965 15.2106 348.943 14.8486C348.963 14.4926 348.909 14.1364 348.784 13.8027C348.659 13.4689 348.467 13.165 348.218 12.9102C347.97 12.6554 347.672 12.4555 347.342 12.323C347.013 12.1906 346.659 12.1286 346.304 12.1411ZM346.304 17.2996C345.987 17.3085 345.671 17.2503 345.377 17.1287C345.083 17.0071 344.818 16.8249 344.598 16.5938C344.379 16.3628 344.211 16.0881 344.104 15.7874C343.997 15.4868 343.954 15.1669 343.978 14.8486C343.954 14.5307 343.997 14.2112 344.104 13.9111C344.211 13.6109 344.379 13.3367 344.599 13.1064C344.818 12.8761 345.084 12.6948 345.378 12.5743C345.671 12.4538 345.987 12.3968 346.304 12.4071C346.623 12.3983 346.939 12.4566 347.233 12.578C347.528 12.6995 347.793 12.8816 348.013 13.1125C348.234 13.3433 348.403 13.6179 348.511 13.9186C348.619 14.2192 348.663 14.5393 348.641 14.8581C348.662 15.1762 348.617 15.4951 348.508 15.7947C348.399 16.0942 348.23 16.3676 348.01 16.5974C347.79 16.8273 347.525 17.0084 347.231 17.1293C346.937 17.2503 346.622 17.3082 346.304 17.2996ZM323.804 5.62409C323.465 5.63136 323.142 5.76982 322.902 6.01056C322.663 6.2513 322.525 6.57572 322.518 6.91609C322.529 7.26255 322.672 7.59159 322.916 7.83671C323.16 8.08184 323.487 8.22476 323.832 8.23659C324.174 8.22443 324.499 8.08053 324.738 7.83471C324.978 7.58889 325.114 7.25998 325.119 6.91609C325.119 6.744 325.084 6.57363 325.018 6.41499C324.952 6.25635 324.854 6.11264 324.732 5.99229C324.609 5.87193 324.464 5.77737 324.305 5.71414C324.146 5.65091 323.975 5.6203 323.804 5.62409ZM280.779 12.0081C278.727 12.0081 276.996 13.0721 275.105 14.7536C274.585 12.9771 273.213 12.0081 270.868 12.0081C268.91 12.0081 267.273 12.9581 265.467 14.5256L265.108 12.3501H264.02V27.5501H265.533V16.1501C267.425 14.4401 269.127 13.5091 270.735 13.5091C272.91 13.5091 273.904 14.7631 273.904 17.0526V27.4741H275.388V16.0741C277.28 14.3261 278.982 13.3951 280.59 13.3951C282.775 13.3951 283.768 14.6491 283.768 16.9386V27.4741H285.272V16.7486C285.272 13.7561 283.891 12.0081 280.779 12.0081ZM295.846 12.0081C292.186 12.0081 289.424 15.0671 289.424 19.9026C289.424 24.7381 292.082 27.7971 296.045 27.7971C298.095 27.7606 300.06 26.9696 301.568 25.5741L301.341 24.1586C299.933 25.54 298.076 26.3633 296.111 26.4766C292.744 26.4766 290.937 23.7691 290.937 19.9026H301.615V19.5796C301.615 15.3901 299.695 12.0081 295.846 12.0081ZM291.023 18.6581C291.382 15.4946 292.98 13.2716 295.837 13.2716C298.475 13.2716 299.913 15.6941 300.008 18.6581H291.023ZM323.066 12.3311H324.542V27.4741H323.066V12.3311Z" fill="#231F20"/>
</g>
<defs>
<clipPath id="clip0_6708_10897">
<rect width="349" height="38" fill="white"/>
</clipPath>
</defs>
</svg>
