<svg width="22" height="25" viewBox="0 0 22 25" fill="none" xmlns="http://www.w3.org/2000/svg">
<g clip-path="url(#clip0_2028_25)">
<path fill-rule="evenodd" clip-rule="evenodd" d="M1.40001 4.97405C0.629006 5.41006 0 6.48807 0 7.37008V16.6302C0 17.5112 0.629006 18.5892 1.40001 19.0262L9.6001 23.6722C10.3701 24.1093 11.6291 24.1093 12.4001 23.6722L20.6002 19.0262C21.3702 18.5892 22.0002 17.5112 22.0002 16.6302V7.37008C22.0002 6.48807 21.3702 5.41006 20.6002 4.97405L12.4001 0.327003C11.6291 -0.109001 10.3701 -0.109001 9.6001 0.327003L1.40001 4.97405Z" fill="#5F1E5C"/>
<path fill-rule="evenodd" clip-rule="evenodd" d="M19.4542 10.1623C14.8841 10.1833 11.4641 13.8123 11.4641 18.2874V18.4754H10.5491V18.2874C10.5491 13.8123 7.12405 10.1833 2.546 10.1623C2.517 10.4433 2.5 10.7283 2.5 11.0173C2.5 14.5163 4.76602 17.4994 7.94106 18.6434C8.85407 18.9784 9.96308 19.1624 10.9941 19.1624C12.0241 19.1624 13.1551 18.9784 14.0671 18.6434C17.2382 17.4994 19.5002 14.5163 19.5002 11.0173C19.5002 10.7283 19.4842 10.4433 19.4542 10.1623Z" fill="white"/>
<path fill-rule="evenodd" clip-rule="evenodd" d="M11 10.6622C12.52 10.6622 13.7501 9.43115 13.7501 7.91214C13.7501 6.39212 12.52 5.16211 11 5.16211C9.48101 5.16211 8.25 6.39212 8.25 7.91214C8.25 9.43115 9.48101 10.6622 11 10.6622Z" fill="white"/>
</g>
<defs>
<clipPath id="clip0_2028_25">
<rect width="22" height="25" fill="white"/>
</clipPath>
</defs>
</svg>
